<svg id="fresh-juice" enable-background="new 0 0 300 300" height="512" viewBox="0 0 300 300" width="512" xmlns="http://www.w3.org/2000/svg" xmlns:xlink="http://www.w3.org/1999/xlink"><linearGradient id="SVGID_1_" gradientUnits="userSpaceOnUse" x1="43.705" x2="255.362" y1="257.361" y2="45.705"><stop offset="0" stop-color="#107eff"/><stop offset="1" stop-color="#8f16ff"/></linearGradient><g><path d="m202 66h-11.039l3.742-15.932h43.297c2.209 0 4-1.791 4-4v-12.068c0-2.209-1.791-4-4-4h-51.246c-4.668 0-8.732 3.377-9.639 7.908l-6.562 28.092h-52.553c-2.209 0-4 1.791-4 4v192h-24c-2.209 0-4 1.791-4 4s1.791 4 4 4h100.758c8.404 0 15.242-6.838 15.242-15.242v-184.758c0-2.209-1.791-4-4-4zm-4 8v72h-25.83l16.912-72zm-37.92 72 16.818-72h3.966l-16.912 72zm24.852-106.395c.188-.93.953-1.605 1.822-1.605h47.246v4.068h-42.467c-1.857 0-3.469 1.277-3.895 3.086l-4.896 20.846h-3.976zm-16.248 34.395-16.819 72h-29.865v-72zm22.074 188h-60.758-8v-108h76v100.758c0 3.994-3.248 7.242-7.242 7.242zm-8.51-99.711c-.826-.107-20.387-2.51-31.447 8.555-11.061 11.072-8.607 30.602-8.498 31.428.238 1.795 1.652 3.205 3.449 3.439.258.033 2.352.291 5.445.291 6.793 0 18.402-1.244 26-8.846h.002c11.061-11.072 8.607-30.602 8.498-31.428-.238-1.794-1.652-3.205-3.449-3.439zm-21.092 60.512c-11.07-11.059-30.604-8.609-31.428-8.498-1.795.238-3.205 1.652-3.439 3.449-.107.826-2.51 20.387 8.555 31.447 7.559 7.551 19.059 8.805 25.859 8.805 3.16 0 5.307-.271 5.568-.307 1.795-.238 3.205-1.652 3.439-3.449.107-.826 2.51-20.387-8.555-31.445.001-.002.001-.002.001-.002zm.824 27.178c-5.193.143-15.473-.438-21.48-6.438-6.012-6.01-6.609-16.297-6.48-21.52 5.219-.129 15.473.438 21.48 6.438 6.012 6.01 6.609 16.297 6.48 21.52zm84.02-67.974c-.002-2.209 1.786-4.002 3.995-4.005s4.002 1.786 4.005 3.995c.002 2.209-1.786 4.002-3.995 4.005-2.21.002-4.003-1.786-4.005-3.995zm-188-124.005v-8c0-2.209 1.791-4 4-4s4 1.791 4 4v8c0 2.209-1.791 4-4 4s-4-1.791-4-4zm8 16v8c0 2.209-1.791 4-4 4s-4-1.791-4-4v-8c0-2.209 1.791-4 4-4s4 1.791 4 4zm-12-4h-8c-2.209 0-4-1.791-4-4s1.791-4 4-4h8c2.209 0 4 1.791 4 4s-1.791 4-4 4zm28-4c0 2.209-1.791 4-4 4h-8c-2.209 0-4-1.791-4-4s1.791-4 4-4h8c2.209 0 4 1.791 4 4zm162 152c-7.719 0-14 6.281-14 14s6.281 14 14 14 14-6.281 14-14-6.281-14-14-14zm0 20c-3.309 0-6-2.691-6-6s2.691-6 6-6 6 2.691 6 6-2.691 6-6 6zm-14-84c-2.209 0-4-1.791-4-4s1.791-4 4-4 4 1.791 4 4-1.791 4-4 4zm-152 112c0 2.209-1.791 4-4 4h-16c-2.209 0-4-1.791-4-4s1.791-4 4-4h16c2.209 0 4 1.791 4 4z" fill="url(#SVGID_1_)"/></g></svg>